ply
format ascii 1.0
comment Created by Blender 3.0.1 - www.blender.org
element vertex 98
property float x
property float y
property float z
element face 192
property list uchar uint vertex_indices
end_header
-4.871546 0.500000 0.500000
-4.871546 1.000000 1.000000
-4.871546 1.000000 0.500000
-3.371546 1.000000 0.500000
-2.871546 1.000000 1.000000
-2.871546 1.000000 0.500000
-2.517112 -0.582189 0.692802
-2.517112 -1.082189 1.192803
-2.517112 -1.082189 0.692802
-4.017112 -1.082189 0.692802
-4.517112 -1.082189 1.192803
-4.517112 -1.082189 0.692802
-3.001100 -0.500000 -0.969103
-2.501100 -1.000000 -0.969103
-3.001100 -1.000000 -0.969103
-4.017112 -0.582189 1.192803
-4.017112 -1.082189 1.192803
-3.017112 -0.582189 1.192803
-3.517112 -1.082189 1.192803
-3.017112 -1.082189 1.192803
-4.001100 -0.500000 -0.969103
-3.501100 -1.000000 -0.969103
-4.001100 -1.000000 -0.969103
-3.017112 -1.082189 0.692802
-3.517112 -1.082189 0.692802
-4.371546 1.000000 0.500000
-3.871546 1.000000 1.000000
-3.871546 1.000000 0.500000
-2.517112 -0.582189 1.192803
-3.501100 -0.500000 -0.969103
-3.371546 1.000000 1.000000
-4.371546 1.000000 1.000000
-4.501100 -0.500000 -0.969103
-4.501100 -1.000000 -0.969103
-3.517112 -0.582189 1.192803
-3.871546 -1.000000 -0.500000
-4.371546 -1.000000 0.000000
-4.371546 -1.000000 -0.500000
-4.501100 1.000000 -0.469103
-4.001100 1.000000 0.030897
-4.001100 1.000000 -0.469103
-3.501100 1.000000 -0.469103
-3.001100 1.000000 0.030897
-3.001100 1.000000 -0.469103
-2.871546 -1.000000 -0.500000
-3.371546 -1.000000 0.000000
-3.371546 -1.000000 -0.500000
-3.501100 1.000000 0.030897
-3.871546 -1.000000 0.000000
-4.871546 -1.000000 0.000000
-4.501100 -1.000000 -0.469103
-2.871546 -0.500000 -0.500000
-2.871546 -1.000000 0.000000
-2.871546 1.000000 0.000000
-2.501100 1.000000 -0.469103
-4.501100 0.500000 -0.469103
-4.501100 1.000000 0.030897
-4.501100 0.500000 -0.969103
-4.501100 1.000000 -0.969103
-3.001100 1.000000 -0.969103
-2.501100 1.000000 -0.969103
-2.501100 -0.500000 -0.969103
-4.001100 1.000000 -0.969103
-3.501100 1.000000 -0.969103
-2.871546 -0.500000 0.000000
-4.501100 0.500000 0.030897
-4.871546 -0.500000 0.000000
-4.871546 0.000000 0.500000
-4.871546 0.000000 0.000000
-2.871546 0.500000 0.000000
-2.871546 0.000000 0.500000
-2.871546 0.000000 0.000000
-2.501100 0.500000 -0.969103
-2.501100 0.000000 -0.469103
-2.501100 0.000000 -0.969103
-4.501100 0.000000 -0.469103
-4.501100 0.000000 -0.969103
-4.501100 -0.500000 -0.469103
-2.501100 0.500000 -0.469103
-3.871546 0.500000 1.000000
-4.017112 -0.082189 1.192803
-3.517112 -0.082189 1.192803
-4.001100 0.000000 -0.969103
-3.501100 0.500000 -0.969103
-3.001100 0.000000 -0.969103
-3.501100 0.000000 -0.969103
-2.517112 0.417811 1.192803
-3.017112 -0.082189 1.192803
-2.517112 -0.082189 1.192803
-4.001100 0.500000 -0.969103
-3.017112 0.417811 1.192803
-4.371546 0.500000 1.000000
-4.871546 0.000000 1.000000
-3.001100 0.500000 -0.969103
-2.871546 0.500000 0.500000
-4.871546 -0.500000 0.500000
-4.517112 -0.582189 1.192803
-4.871546 0.500000 1.000000
3 0 1 2
3 3 4 5
3 6 7 8
3 9 10 11
3 12 13 14
3 15 10 16
3 17 18 19
3 20 21 22
3 23 18 24
3 25 26 27
3 8 19 23
3 28 19 7
3 29 14 21
3 27 30 3
3 2 31 25
3 32 22 33
3 34 16 18
3 24 16 9
3 35 36 37
3 38 39 40
3 41 42 43
3 44 45 46
3 40 47 41
3 46 48 35
3 37 49 50
3 51 52 44
3 43 53 54
3 55 56 38
3 57 38 58
3 59 54 60
3 61 44 13
3 22 50 33
3 14 35 21
3 62 41 63
3 13 46 14
3 63 43 59
3 58 40 62
3 21 37 22
3 48 9 36
3 56 25 39
3 47 3 42
3 52 23 45
3 39 27 47
3 45 24 48
3 36 11 49
3 64 8 52
3 42 5 53
3 65 2 56
3 66 67 68
3 69 70 71
3 72 73 74
3 32 75 76
3 77 68 75
3 78 71 73
3 79 80 81
3 57 82 76
3 83 84 85
3 86 87 88
3 89 85 82
3 90 81 87
3 91 92 80
3 93 74 84
3 94 88 70
3 95 92 67
3 11 96 95
3 50 66 77
3 33 77 32
3 49 95 66
3 71 6 64
3 74 51 61
3 73 64 51
3 81 15 34
3 76 20 32
3 85 12 29
3 88 17 28
3 82 29 20
3 87 34 17
3 80 96 15
3 84 61 12
3 70 28 6
3 5 86 94
3 59 72 93
3 31 97 91
3 30 79 90
3 62 83 89
3 4 90 86
3 63 93 83
3 58 89 57
3 26 91 79
3 54 69 78
3 60 78 72
3 53 94 69
3 68 0 65
3 76 55 57
3 75 65 55
3 67 97 0
3 0 97 1
3 3 30 4
3 6 28 7
3 9 16 10
3 12 61 13
3 15 96 10
3 17 34 18
3 20 29 21
3 23 19 18
3 25 31 26
3 8 7 19
3 28 17 19
3 29 12 14
3 27 26 30
3 2 1 31
3 32 20 22
3 34 15 16
3 24 18 16
3 35 48 36
3 38 56 39
3 41 47 42
3 44 52 45
3 40 39 47
3 46 45 48
3 37 36 49
3 51 64 52
3 43 42 53
3 55 65 56
3 57 55 38
3 59 43 54
3 61 51 44
3 22 37 50
3 14 46 35
3 62 40 41
3 13 44 46
3 63 41 43
3 58 38 40
3 21 35 37
3 48 24 9
3 56 2 25
3 47 27 3
3 52 8 23
3 39 25 27
3 45 23 24
3 36 9 11
3 64 6 8
3 42 3 5
3 65 0 2
3 66 95 67
3 69 94 70
3 72 78 73
3 32 77 75
3 77 66 68
3 78 69 71
3 79 91 80
3 57 89 82
3 83 93 84
3 86 90 87
3 89 83 85
3 90 79 81
3 91 97 92
3 93 72 74
3 94 86 88
3 95 96 92
3 11 10 96
3 50 49 66
3 33 50 77
3 49 11 95
3 71 70 6
3 74 73 51
3 73 71 64
3 81 80 15
3 76 82 20
3 85 84 12
3 88 87 17
3 82 85 29
3 87 81 34
3 80 92 96
3 84 74 61
3 70 88 28
3 5 4 86
3 59 60 72
3 31 1 97
3 30 26 79
3 62 63 83
3 4 30 90
3 63 59 93
3 58 62 89
3 26 31 91
3 54 53 69
3 60 54 78
3 53 5 94
3 68 67 0
3 76 75 55
3 75 68 65
3 67 92 97
