ply
format ascii 1.0
comment Created by Blender 3.0.1 - www.blender.org
element vertex 8
property float x
property float y
property float z
element face 12
property list uchar uint vertex_indices
end_header
-1.000000 -1.000000 -1.000000
-1.000000 1.000000 1.000000
-1.000000 1.000000 -1.000000
1.000000 1.000000 1.000000
1.000000 1.000000 -1.000000
1.000000 -1.000000 1.000000
1.000000 -1.000000 -1.000000
-1.000000 -1.000000 1.000000
3 0 1 2
3 2 3 4
3 4 5 6
3 6 7 0
3 2 6 0
3 3 7 5
3 0 7 1
3 2 1 3
3 4 3 5
3 6 5 7
3 2 4 6
3 3 1 7
